# xmcd
#
# Track frame offsets: 
#        150
#        19978
#        38551
#        55845
#        74775
#        91069
#        109263
#        127583
#        147430
#        164524
#        182708
#        197135
#        213143
#        230060
#        247638
#        265677
#        282834
#        301421
#        318699
#        333592
#
# Disc length: 4680 seconds
#
# Revision: 0
# Processed by: cddbd v1.5.2PL0 Copyright (c) Steve Scherf et al.
# Submitted via: ExactAudioCopy v0.99pb3
#
DISCID=22124614
DTITLE=Various Artist - ERG Nu Urban Traxx #120
DYEAR=2008
DGENRE=Blues
TTITLE0=Snoop Dogg - Life Of The Party
TTITLE1=Lupe Fiasco - Paris,Tokyo
TTITLE2=Rihanna - Take A Bow
TTITLE3=Lil' Wayne Ft Static Major - Lollipop
TTITLE4=Jahiem Ft Keyshia Cole - I've Changed
TTITLE5=Plies Ft Ne Yo - Bust It Baby Part II
TTITLE6=Nelly Ft Fergie - Party People
TTITLE7=Mary J Blige - Stay Down
TTITLE8=David Banner Ft Chris Brown - Get Like Me
TTITLE9=The Dream - I luv Ya Girl
TTITLE10=Alicia Keys - Teenage Love Affair
TTITLE11=C Slide Ft  Keyshia Cole - Boyfriend Girlfriend Remix
TTITLE12=Sean Kingston Ft Juelz Santana - There's Nothin'
TTITLE13=Keyshia Cole - Heaven Sent
TTITLE14=Ne Yo - Closer
TTITLE15=Marvin Sapp - Never Would Have Made It
TTITLE16=Chris Brown - Take You Down
TTITLE17=Rocko - Tomorrow
TTITLE18=Chrisette Michelle - Love Is You
TTITLE19=Baby Bash Ft Keith Sweat - Don't Stop
EXTD=
EXTT0=
EXTT1=
EXTT2=
EXTT3=
EXTT4=
EXTT5=
EXTT6=
EXTT7=
EXTT8=
EXTT9=
EXTT10=
EXTT11=
EXTT12=
EXTT13=
EXTT14=
EXTT15=
EXTT16=
EXTT17=
EXTT18=
EXTT19=
PLAYORDER=
